<svg xmlns="http://www.w3.org/2000/svg" xmlns:xlink="http://www.w3.org/1999/xlink" version="1.1" style="enable-background:new 0 0 128 128;" xml:space="preserve" width="60" height="60"><rect id="backgroundrect" width="92.08633093525181" height="114.0727705498769" x="0" y="0.7194244861602783" fill="none" stroke="none" class="" style=""/><g class="currentLayer" style=""><title>Layer 1</title><path d="M30.90647161136678,59.03237065203427 C15.794860264530676,59.03237065203427 3.5,46.25386678107847 3.5,30.546759591134276 S15.794860264530676,2.061148530234277 30.90647161136678,2.061148530234277 s27.40647161136678,12.778503870955799 27.40647161136678,28.485611060899995 S46.01808295820289,59.03237065203427 30.90647161136678,59.03237065203427 zM30.90647161136678,3.002821623156591 C16.29406574743524,3.002821623156591 4.405999061532786,15.358985111936732 4.405999061532786,30.546759591134276 s11.888066685902452,27.54393796797768 26.500472549833994,27.54393796797768 s26.500472549833994,-12.35616348878014 26.500472549833994,-27.54393796797768 S45.51887747529833,3.002821623156591 30.90647161136678,3.002821623156591 z" id="svg_3" class=""/><g id="svg_4" class=""><g id="svg_5"><path d="M30.65450092173889,40.19731322942605 c-0.08404613314378943,0 -0.16809226628757887,-0.023693856532210733 -0.240962051938843,-0.07063451569979798 c-0.1283044692141891,-0.0822579170174863 -0.20609184776216447,-0.22397400231391637 -0.20609184776216447,-0.3764193811343665 V29.45773746577892 c0,-0.18016272042416828 0.10818704372764382,-0.3433373927686384 0.27449109441641856,-0.4126307467779339 l10.101629917643963,-4.217953516630341 c0.13813965500761133,-0.05766995269160722 0.29550262770236607,-0.04291717409607981 0.4202306657189471,0.04068190461190898 c0.1242809841168801,0.08270497091432044 0.19893898536694846,0.22263284062341385 0.19893898536694846,0.371948842166025 v9.864244233645836 c0,0.17479807366215835 -0.1019282891318297,0.3330551531414526 -0.26018536962598643,0.4063719922222555 L30.841369451813915,40.156631324814136 C30.781911283153676,40.18390161252102 30.718429629396134,40.19731322942605 30.65450092173889,40.19731322942605 zM31.101554821439898,29.75547536107047 v9.297379892460116 l9.207522118241949,-4.234941564710039 V25.91081184829666 L31.101554821439898,29.75547536107047 z" id="svg_6"/><g id="svg_7"><path d="M30.61873660976281,40.30550027245991 c-0.06392870765724405,0 -0.1278574153144881,-0.0138586708018591 -0.18776263787442327,-0.04112895850874315 L20.14962838656462,35.51040017501667 c-0.15825708049415668,-0.07331683908080298 -0.2592912618265843,-0.23157391856009724 -0.2592912618265843,-0.4059249383254213 V25.204019637401842 c0,-0.14886894764577682 0.07421094735036725,-0.2883497634580362 0.19804487756754638,-0.3715017882691908 c0.1238339302171791,-0.0835990787079888 0.2811969029119339,-0.09879891120035034 0.4188895040198442,-0.04247012019924565 l10.281345585323768,4.217506462733506 c0.1676452123878779,0.06884630011246136 0.2771734178146248,0.23246802635376548 0.2771734178146248,0.41352485457160226 v10.436473221593566 c0,0.15244537882045017 -0.07778737854797531,0.2946085180137145 -0.20609184776216447,0.3764193811343665 C30.786381822150688,40.28135936203087 30.703229796806298,40.30550027245991 30.61873660976281,40.30550027245991 zM20.784444924140047,34.818807796614216 l9.387237785921753,4.340446284362901 v-9.437307762169208 l-9.387237785921753,-3.850922267329492 V34.818807796614216 z" id="svg_8"/><path d="M30.65450092173889,29.90479136261308 c-0.05811700696113098,0 -0.11578696002256098,-0.011176347420854117 -0.1703275357860839,-0.033976096159396514 l-10.317109897299849,-4.2537178283770745 c-0.1689863740869809,-0.06974040790612969 -0.27851457951372777,-0.23515034973477048 -0.2767263639149238,-0.4179953935399439 s0.11489285222315897,-0.34601971614964333 0.285220388009243,-0.41218369288109963 l10.209369907471904,-3.968944496093712 c0.10371650473063376,-0.04112895850874315 0.22039757255259676,-0.04068190461190898 0.32545523898233353,0.0004470538968341646 l10.209369907471904,4.004708807840445 c0.16943342798668187,0.06661103062829053 0.2816439568116348,0.22933864907592644 0.2838792263101398,0.41128958508743124 c0.001788215598804031,0.18195093601150497 -0.10639882812883977,0.3469138239433117 -0.27449109441641856,0.41754833964310956 l-10.101629917643963,4.217953516630341 C30.771629043460553,29.893167961295394 30.71306498259972,29.90479136261308 30.65450092173889,29.90479136261308 zM21.539966014634754,25.2165371465132 l9.114087853204438,3.7574880028911513 l8.91112538274018,-3.720829583350749 l-9.018865372568124,-3.5375374856487425 L21.539966014634754,25.2165371465132 z" id="svg_9"/></g></g><g id="svg_10"><g id="svg_11"><path d="M30.546760931910946,10.855377764612506 c-1.2115160681897301,0 -2.1972699170304515,-0.9857538425193323 -2.1972699170304515,-2.197269902939918 S29.33524486372122,6.46083795873267 30.546760931910946,6.46083795873267 s2.1972699170304515,0.9857538425193323 2.1972699170304515,2.197269902939918 S31.758277000100673,10.855377764612506 30.546760931910946,10.855377764612506 zM30.546760931910946,7.354945752400999 c-0.718415616819519,0 -1.3031621176284367,0.584746497059087 -1.3031621176284367,1.3031621092715895 s0.5847465008089178,1.3031621092715895 1.3031621176284367,1.3031621092715895 s1.3031621176284367,-0.584746497059087 1.3031621176284367,-1.3031621092715895 S31.265176548730466,7.354945752400999 30.546760931910946,7.354945752400999 z" id="svg_12"/><path d="M15.06930787036237,17.265683591317586 c-0.5628408597235682,0 -1.1256817194471365,-0.21413881658356482 -1.5539593553607016,-0.6428635036475286 c-0.41531307282223595,-0.41486601626210456 -0.6437576155694509,-0.9669775788522976 -0.6437576155694509,-1.5535122914987212 c0,-0.5869817665432582 0.22889159664691588,-1.1386462752366167 0.6437576155694509,-1.5539593453955551 c0.8565552718271302,-0.8570023202310931 2.2509163849945732,-0.8570023202310931 3.1074716568217022,0 l0,0 c0.8565552718271302,0.8570023202310931 0.8565552718271302,2.250469316663183 0,3.1074716368942763 C16.194542535909807,17.051544774734023 15.632148730085941,17.265683591317586 15.06930787036237,17.265683591317586 zM15.06930787036237,13.766592740796586 c-0.3335022091769517,0 -0.6674514722536045,0.1269633067009027 -0.9218251411834774,0.38133697399954236 c-0.24632669873525512,0.24632669715562475 -0.3817840303446605,0.5735701496382329 -0.3817840303446605,0.9218251352720468 c0,0.34780793173698 0.1359043855091063,0.6750513842195882 0.3817840303446605,0.9213780813752127 c0.5087473378597462,0.5087473345972792 1.3353499984069095,0.5078532268036106 1.8432032284672533,0 c0.5078532300603446,-0.5083002807004452 0.5078532300603446,-1.3349029359468148 0,-1.8432032166472598 C15.736759342615974,13.893556047497487 15.402810079539321,13.766592740796586 15.06930787036237,13.766592740796586 z" id="svg_13"/><path d="M8.658107894750222,32.74403066140686 c-1.2115160681897301,0 -2.1972699170304515,-0.9857538425193323 -2.1972699170304515,-2.197269902939918 s0.9857538488407214,-2.197269902939918 2.1972699170304515,-2.197269902939918 S10.855377811780674,29.335244698046356 10.855377811780674,30.54676075846694 S9.869623962939952,32.74403066140686 8.658107894750222,32.74403066140686 zM8.658107894750222,29.24359864919535 c-0.718415616819519,0 -1.3031621176284367,0.584746497059087 -1.3031621176284367,1.3031621092715895 s0.5847465008089178,1.3031621092715895 1.3031621176284367,1.3031621092715895 s1.3031621176284367,-0.584746497059087 1.3031621176284367,-1.3031621092715895 S9.376970565469442,29.24359864919535 8.658107894750222,29.24359864919535 z" id="svg_14"/><path d="M15.06930787036237,48.2205895159088 c-0.5628408597235682,0 -1.1256817194471365,-0.21413881658356482 -1.5539593553607016,-0.6428635036475286 c-0.41531307282223595,-0.41486601626210456 -0.6437576155694509,-0.9669775788522976 -0.6437576155694509,-1.5539593453955551 c0,-0.5869817665432582 0.22889159664691588,-1.1386462752366167 0.6437576155694509,-1.5535122914987212 c0.8565552718271302,-0.8570023202310931 2.2509163849945732,-0.8570023202310931 3.1074716568217022,0 c0.8565552718271302,0.8570023202310931 0.8565552718271302,2.250469316663183 0,3.1074716368942763 C16.194542535909807,48.006450699325235 15.632148730085941,48.2205895159088 15.06930787036237,48.2205895159088 zM15.06930787036237,44.721945719284626 c-0.33394926307665285,0 -0.6674514722536045,0.1269633067009027 -0.9218251411834774,0.38133697399954236 l0,0 c-0.24632669873525512,0.24632669715562475 -0.3817840303446605,0.5735701496382329 -0.3817840303446605,0.9213780813752127 c0,0.3482549856338142 0.1359043855091063,0.6754984381164223 0.3817840303446605,0.9218251352720468 c0.5087473378597462,0.5087473345972792 1.3353499984069095,0.5078532268036106 1.8432032284672533,0 c0.5078532300603446,-0.5083002807004452 0.5078532300603446,-1.3349029359468148 0,-1.8432032166472598 C15.736759342615974,44.84890902598553 15.402810079539321,44.721945719284626 15.06930787036237,44.721945719284626 zM13.831415622090281,44.786768534325574 h0.004470538997010077 H13.831415622090281 z" id="svg_15"/><path d="M30.546760931910946,54.63268355820121 c-1.2115160681897301,0 -2.1972699170304515,-0.9857538425193323 -2.1972699170304515,-2.197269902939918 s0.9857538488407214,-2.197269902939918 2.1972699170304515,-2.197269902939918 s2.1972699170304515,0.9857538425193323 2.1972699170304515,2.197269902939918 S31.758277000100673,54.63268355820121 30.546760931910946,54.63268355820121 zM30.546760931910946,51.1322515459897 c-0.718415616819519,0 -1.3031621176284367,0.584746497059087 -1.3031621176284367,1.3031621092715895 s0.5847465008089178,1.3031621092715895 1.3031621176284367,1.3031621092715895 s1.3031621176284367,-0.584746497059087 1.3031621176284367,-1.3031621092715895 S31.265176548730466,51.1322515459897 30.546760931910946,51.1322515459897 z" id="svg_16"/><path d="M46.02421399345952,48.2205895159088 c-0.5628408597235682,0 -1.1256817194471365,-0.21413881658356482 -1.5539593553607016,-0.6428635036475286 l0,0 c-0.8565552718271302,-0.8570023202310931 -0.8565552718271302,-2.250469316663183 0,-3.1074716368942763 c0.8565552718271302,-0.8570023202310931 2.2509163849945732,-0.8570023202310931 3.1074716568217022,0 c0.41531307282223595,0.41486601626210456 0.6437576155694509,0.9669775788522976 0.6437576155694509,1.5535122914987212 c0,0.5869817665432582 -0.22889159664691588,1.1386462752366167 -0.6437576155694509,1.5539593453955551 C47.14989571290666,48.006450699325235 46.58705485318309,48.2205895159088 46.02421399345952,48.2205895159088 zM45.10283590617575,46.9460388560346 c0.5083002839600455,0.5083002807004452 1.334902944507208,0.5083002807004452 1.8432032284672533,0 c0.24632669873525512,-0.24632669715562475 0.3817840303446605,-0.5735701496382329 0.3817840303446605,-0.9218251352720468 c0,-0.34780793173698 -0.1359043855091063,-0.6750513842195882 -0.3817840303446605,-0.9213780813752127 c-0.5083002839600455,-0.5083002807004452 -1.334902944507208,-0.5074061729067767 -1.8432032284672533,0 C44.59498267611541,45.61113592008778 44.59498267611541,46.43773857533416 45.10283590617575,46.9460388560346 L45.10283590617575,46.9460388560346 z" id="svg_17"/><path d="M52.435413969071675,32.74403066140686 c-1.2115160681897301,0 -2.1972699170304515,-0.9857538425193323 -2.1972699170304515,-2.197269902939918 s0.9857538488407214,-2.197269902939918 2.1972699170304515,-2.197269902939918 s2.1972699170304515,0.9857538425193323 2.1972699170304515,2.197269902939918 S53.6469300372614,32.74403066140686 52.435413969071675,32.74403066140686 zM52.435413969071675,29.24359864919535 c-0.718415616819519,0 -1.3031621176284367,0.584746497059087 -1.3031621176284367,1.3031621092715895 s0.5847465008089178,1.3031621092715895 1.3031621176284367,1.3031621092715895 s1.3031621176284367,-0.584746497059087 1.3031621176284367,-1.3031621092715895 S53.153829585891195,29.24359864919535 52.435413969071675,29.24359864919535 z" id="svg_18"/><path d="M46.02421399345952,17.265683591317586 c-0.5628408597235682,0 -1.1256817194471365,-0.21413881658356482 -1.5539593553607016,-0.6428635036475286 c-0.8565552718271302,-0.8570023202310931 -0.8565552718271302,-2.250469316663183 0,-3.1074716368942763 c0.8565552718271302,-0.8570023202310931 2.2509163849945732,-0.8570023202310931 3.1074716568217022,0 c0.41531307282223595,0.41486601626210456 0.6437576155694509,0.9669775788522976 0.6437576155694509,1.5539593453955551 c0,0.5869817665432582 -0.22889159664691588,1.1386462752366167 -0.6437576155694509,1.5535122914987212 C47.14989571290666,17.051544774734023 46.58705485318309,17.265683591317586 46.02421399345952,17.265683591317586 zM46.02421399345952,13.766592740796586 c-0.33394926307665285,0 -0.6674514722536045,0.1269633067009027 -0.9218251411834774,0.38133697399954236 c-0.5078532300603446,0.5083002807004452 -0.5078532300603446,1.3349029359468148 0,1.8432032166472598 c0.5091943917594474,0.5087473345972792 1.33579705230661,0.5078532268036106 1.8432032284672533,0 l0,0 c0.24632669873525512,-0.24632669715562475 0.3817840303446605,-0.5735701496382329 0.3817840303446605,-0.9213780813752127 c0,-0.3482549856338142 -0.1359043855091063,-0.6754984381164223 -0.3817840303446605,-0.9218251352720468 C46.69166546571313,13.893556047497487 46.357716202636475,13.766592740796586 46.02421399345952,13.766592740796586 z" id="svg_19"/></g><g id="svg_20"><path d="M30.546760931910946,17.634503056205773 c-0.2472208065346572,0 -0.4470538997010075,-0.20028014578170572 -0.4470538997010075,-0.44705389683416435 v-4.369504787657123 c0,-0.2467737510524588 0.19983309316635045,-0.44705389683416435 0.4470538997010075,-0.44705389683416435 s0.4470538997010075,0.20028014578170572 0.4470538997010075,0.44705389683416435 v4.369504787657123 C30.993814831611957,17.434222910424065 30.793981738445602,17.634503056205773 30.546760931910946,17.634503056205773 z" id="svg_21"/><path d="M21.10006497732896,21.54711876129838 c-0.11444579832345794,0 -0.22889159664691588,-0.04381128188974815 -0.31606710708861235,-0.1309867917724102 l-3.089589500833662,-3.0900365349177443 c-0.17479807478309398,-0.17479807366215835 -0.17479807478309398,-0.45733613646134996 0,-0.6321342101235087 s0.4573361393941306,-0.17479807366215835 0.6321342141772246,0 l3.089589500833662,3.0900365349177443 c0.17479807478309398,0.17479807366215835 0.17479807478309398,0.45733613646134996 0,0.6321342101235087 C21.328956573975876,21.503307479408633 21.214510775652418,21.54711876129838 21.10006497732896,21.54711876129838 z" id="svg_22"/><path d="M17.187449247145747,30.993814655301108 h-4.369951869577347 c-0.2472208065346572,0 -0.4470538997010075,-0.20028014578170572 -0.4470538997010075,-0.44705389683416435 s0.19983309316635045,-0.44705389683416435 0.4470538997010075,-0.44705389683416435 h4.369951869577347 c0.2472208065346572,0 0.4470538997010075,0.20028014578170572 0.4470538997010075,0.44705389683416435 S17.4346700536804,30.993814655301108 17.187449247145747,30.993814655301108 z" id="svg_23"/><path d="M18.010475476495298,43.53010003032474 c-0.11444579832345794,0 -0.22889159664691588,-0.04381128188974815 -0.31606710708861235,-0.1309867917724102 c-0.17479807478309398,-0.17479807366215835 -0.17479807478309398,-0.45733613646134996 0,-0.6321342101235087 l3.089589500833662,-3.0900365349177443 c0.17479807478309398,-0.17479807366215835 0.4573361393941306,-0.17479807366215835 0.6321342141772246,0 s0.17479807478309398,0.45733613646134996 0,0.6321342101235087 l-3.089589500833662,3.0900365349177443 C18.239367073142212,43.48673580233182 18.124921274818753,43.53010003032474 18.010475476495298,43.53010003032474 z" id="svg_24"/><path d="M30.546760931910946,48.7230780959504 c-0.2472208065346572,0 -0.4470538997010075,-0.20028014578170572 -0.4470538997010075,-0.44705389683416435 v-4.369504787657123 c0,-0.2467737510524588 0.19983309316635045,-0.44705389683416435 0.4470538997010075,-0.44705389683416435 s0.4470538997010075,0.20028014578170572 0.4470538997010075,0.44705389683416435 v4.369504787657123 C30.993814831611957,48.52279795016869 30.793981738445602,48.7230780959504 30.546760931910946,48.7230780959504 z" id="svg_25"/><path d="M43.0830463873266,43.53010003032474 c-0.11444579832345794,0 -0.22889159664691588,-0.04381128188974815 -0.31606710708861235,-0.1309867917724102 l-3.089589500833662,-3.0900365349177443 c-0.17479807478309398,-0.17479807366215835 -0.17479807478309398,-0.45733613646134996 0,-0.6321342101235087 s0.4573361393941306,-0.17479807366215835 0.6321342141772246,0 l3.089589500833662,3.0900365349177443 c0.17479807478309398,0.17479807366215835 0.17479807478309398,0.45733613646134996 0,0.6321342101235087 C43.311937983973515,43.48673580233182 43.197492185650056,43.53010003032474 43.0830463873266,43.53010003032474 z" id="svg_26"/><path d="M48.2760244862535,30.993814655301108 h-4.369951869577347 c-0.2472208065346572,0 -0.4470538997010075,-0.20028014578170572 -0.4470538997010075,-0.44705389683416435 s0.19983309316635045,-0.44705389683416435 0.4470538997010075,-0.44705389683416435 h4.369951869577347 c0.2472208065346572,0 0.4470538997010075,0.20028014578170572 0.4470538997010075,0.44705389683416435 S48.52324529278816,30.993814655301108 48.2760244862535,30.993814655301108 z" id="svg_27"/><path d="M39.993456886492936,21.54711876129838 c-0.11444579832345794,0 -0.22889159664691588,-0.04381128188974815 -0.31606710708861235,-0.1309867917724102 c-0.17479807478309398,-0.17479807366215835 -0.17479807478309398,-0.45733613646134996 0,-0.6321342101235087 l3.089589500833662,-3.0900365349177443 c0.17479807478309398,-0.17479807366215835 0.4573361393941306,-0.17479807366215835 0.6321342141772246,0 s0.17479807478309398,0.45733613646134996 0,0.6321342101235087 l-3.089589500833662,3.0900365349177443 C40.222348483139854,21.503307479408633 40.107902684816395,21.54711876129838 39.993456886492936,21.54711876129838 z" id="svg_28"/></g></g></g></g></svg>